<svg xmlns="http://www.w3.org/2000/svg" width="20" height="20" viewBox="0 0 20 20">
  <g id="ico_trending-up" transform="translate(-60 -81.46)">
    <rect id="사각형_25" data-name="사각형 25" width="20" height="20" transform="translate(60 81.46)" fill="none"/>
    <path id="Icon_ionic-ios-trending-up" data-name="Icon ionic-ios-trending-up" d="M20.836,9H15.649a.636.636,0,1,0,0,1.271h3.593l-5.925,6.105L9.63,12.765a.649.649,0,0,0-.459-.185.657.657,0,0,0-.459.185L2.43,18.909a.621.621,0,0,0-.18.459.583.583,0,0,0,.18.438.649.649,0,0,0,.459.185.657.657,0,0,0,.459-.185l5.822-5.7,3.688,3.611a.649.649,0,0,0,.459.185.657.657,0,0,0,.459-.185L20.192,11.2v3.508a.648.648,0,0,0,1.3,0V9.635A.649.649,0,0,0,20.836,9Z" transform="translate(58.391 77.266)" fill="#fd657f"/>
  </g>
</svg>
