<svg id="ico_manage" xmlns="http://www.w3.org/2000/svg" width="20" height="20" viewBox="0 0 20 20">
  <defs>
    <style>
      .cls-1 {
        fill: none;
      }

      .cls-2 {
        fill: #3e4465;
      }
    </style>
  </defs>
  <rect id="사각형_50" data-name="사각형 50" class="cls-1" width="20" height="20"/>
  <path id="Icon_ionic-ios-list-box" data-name="Icon ionic-ios-list-box" class="cls-2" d="M3.375,4.622V17.08a1.248,1.248,0,0,0,1.247,1.247H17.08a1.248,1.248,0,0,0,1.247-1.247V4.622A1.248,1.248,0,0,0,17.08,3.375H4.622A1.245,1.245,0,0,0,3.375,4.622ZM6.584,15.3a.718.718,0,1,1,.618-.618A.715.715,0,0,1,6.584,15.3Zm0-3.737a.718.718,0,1,1,.618-.618A.715.715,0,0,1,6.584,11.56Zm0-3.737A.718.718,0,1,1,7.2,7.205.715.715,0,0,1,6.584,7.823Zm8.89,7.266H9.006a.5.5,0,0,1-.5-.5h0a.5.5,0,0,1,.5-.5h6.468a.5.5,0,0,1,.5.5h0A.5.5,0,0,1,15.473,15.089Zm0-3.737H9.006a.5.5,0,0,1-.5-.5h0a.5.5,0,0,1,.5-.5h6.468a.5.5,0,0,1,.5.5h0A.5.5,0,0,1,15.473,11.352Zm0-3.737H9.006a.5.5,0,0,1-.5-.5h0a.5.5,0,0,1,.5-.5h6.468a.5.5,0,0,1,.5.5h0A.5.5,0,0,1,15.473,7.615Z" transform="translate(-0.781 -0.921)"/>
</svg>
